<svg id="Apple-icon" xmlns="http://www.w3.org/2000/svg" width="16.807" height="20" viewBox="0 0 16.807 20">
  <path id="Path_82" data-name="Path 82" d="M8.177-2.431a4.168,4.168,0,0,1,2.233-3.786A4.8,4.8,0,0,0,6.627-8.209c-1.585-.125-3.318.924-3.952.924-.67,0-2.206-.88-3.411-.88-2.492.04-5.139,1.987-5.139,5.948a11.129,11.129,0,0,0,.643,3.626C-4.66,3.048-2.6,7.066-.445,7c1.125-.027,1.92-.8,3.385-.8C4.359,6.2,5.1,7,6.35,7c2.17-.031,4.036-3.684,4.581-5.327A4.426,4.426,0,0,1,8.177-2.431ZM5.649-9.763A4.205,4.205,0,0,0,6.721-13a4.735,4.735,0,0,0-3.032,1.558,4.271,4.271,0,0,0-1.143,3.21A3.75,3.75,0,0,0,5.649-9.763Z" transform="translate(5.875 13)" fill="#fff"/>
</svg>
