<svg xmlns="http://www.w3.org/2000/svg" width="19.8" height="20.204" viewBox="0 0 19.8 20.204">
  <g id="Google__G__Logo" transform="translate(1184.577 765.171)">
    <path id="Path_4391" data-name="Path 4391" d="M-1089.33-687.239v3.912h5.437a4.658,4.658,0,0,1-2.03,3.04l3.279,2.544a9.87,9.87,0,0,0,3.012-7.43,11.6,11.6,0,0,0-.184-2.066Z" transform="translate(-85.145 -69.667)" fill="#4285f4"/>
    <path id="Path_4392" data-name="Path 4392" d="M-1171-651.791l-.74.566-2.617,2.039h0a10.1,10.1,0,0,0,9.018,5.575,9.641,9.641,0,0,0,6.686-2.443l-3.279-2.544a6.017,6.017,0,0,1-3.407.974,6.031,6.031,0,0,1-5.657-4.16Z" transform="translate(-9.132 -101.355)" fill="#34a853"/>
    <path id="Path_4393" data-name="Path 4393" d="M-1183.493-712.61a9.978,9.978,0,0,0-1.084,4.528,9.978,9.978,0,0,0,1.084,4.528c0,.009,3.361-2.608,3.361-2.608a6.053,6.053,0,0,1-.321-1.919,6.055,6.055,0,0,1,.321-1.92Z" transform="translate(0 -46.986)" fill="#fbbc05"/>
    <path id="Path_4394" data-name="Path 4394" d="M-1165.344-761.148a5.512,5.512,0,0,1,3.866,1.506l2.893-2.893a9.692,9.692,0,0,0-6.759-2.636,10.085,10.085,0,0,0-9.019,5.575l3.361,2.608A6.031,6.031,0,0,1-1165.344-761.148Z" transform="translate(-9.132)" fill="#ea4335"/>
  </g>
</svg>
