<svg id="Kusur-logo-white" xmlns="http://www.w3.org/2000/svg" width="139.126" height="38.91" viewBox="0 0 139.126 38.91">
  <g id="Kusur_logo_FINAL-white-01" transform="translate(0 0)">
    <path id="Path_1880" data-name="Path 1880" d="M154.326,8.484a1.386,1.386,0,0,0-.319-.228C141.052,0,126.638-.958,109.9,5.246c.046-.046.046-.091.091-.182l.137-.319a8.139,8.139,0,0,0,1.049-3.6,1.282,1.282,0,0,0-.228-.912A.428.428,0,0,0,110.536,0a1.176,1.176,0,0,0-.958.593c-1.46,2.463-2.646,4.561-3.786,6.751l-.091.137c-.182.319-.319.639-.5,1a.907.907,0,0,0-.046.639c.046.182.182.274.365.365a9.116,9.116,0,0,0,2.007.5c.137,0,.228.046.319.046l2.007.411c1.6.319,3.1.639,4.7.958.091,0,.5.091.639.091h.274a1.817,1.817,0,0,0,.958-.274,1,1,0,0,0,.274-1.095,1.113,1.113,0,0,0-.365-.411,13.351,13.351,0,0,0-4.242-1.505H112a12.647,12.647,0,0,0,1.186-.456A47.749,47.749,0,0,1,138.27,5.246a51.785,51.785,0,0,1,13.548,4.2c.411.182.775.319,1.14.456a2.263,2.263,0,0,0,.593.137.838.838,0,0,0,.547-.091.941.941,0,0,0,.5-.821A1.043,1.043,0,0,0,154.326,8.484Z" transform="translate(-57.167 0)" fill="#fc68b1"/>
    <path id="Path_1881" data-name="Path 1881" d="M0,2.733,7.663,1V22.986l10.948-11.86h8.667L17.2,22.12,27.825,39.134H18.976L11.86,27.822l-4.2,4.516v6.8H0Z" transform="translate(0 -0.544)" fill="#fff"/>
    <path id="Path_1882" data-name="Path 1882" d="M83.4,25.754l7.663,1.688V51.208h-6.8l-.73-3.376a9.807,9.807,0,0,1-8.211,3.695c-5.747,0-11.13-2.874-11.13-12.818V23.2h7.663V37.706c0,5.018,1.642,7.481,5.428,7.481,3.832,0,6.067-2.783,6.067-7.937V25.754Z" transform="translate(-34.915 -12.617)" fill="#fff"/>
    <path id="Path_1883" data-name="Path 1883" d="M139.353,41.412c.274,2.463,2.418,4.151,6.158,4.151,3.193,0,5.154-1.049,5.154-3.011,0-2.281-1.916-2.463-6.432-3.056-6.523-.775-11.586-2.235-11.586-8.028,0-5.565,4.835-9.214,12.042-9.169,7.526,0,12.681,3.33,13.091,9.032h-7.344c-.228-2.235-2.326-3.6-5.428-3.6-3.011,0-4.972,1.095-4.972,2.874,0,2.144,2.418,2.326,6.432,2.828,6.432.639,11.769,2.144,11.769,8.439,0,5.565-5.246,9.077-12.727,9.077-7.8,0-13.092-3.649-13.411-9.625h7.253Z" transform="translate(-71.843 -12.127)" fill="#fff"/>
    <path id="Path_1884" data-name="Path 1884" d="M216.2,23.2h7.663V51.208h-6.8l-.73-3.376a9.807,9.807,0,0,1-8.211,3.695c-5.793,0-11.13-2.874-11.13-12.818V25.754l7.663,1.733V37.706c0,5.018,1.642,7.481,5.428,7.481,3.832,0,6.067-2.783,6.067-7.937V23.2Z" transform="translate(-107.139 -12.617)" fill="#fff"/>
    <path id="Path_1885" data-name="Path 1885" d="M284.66,23.2v6.979H281.6c-4.561,0-6.34,3.056-6.34,7.3v13.73H267.6V23.2h6.979l.73,4.2c1.505-2.509,3.695-4.2,8.074-4.2Z" transform="translate(-145.534 -12.617)" fill="#fff"/>
  </g>
</svg>
