<svg id="east_FILL0_wght200_GRAD0_opsz40" xmlns="http://www.w3.org/2000/svg" width="20" height="13.926" viewBox="0 0 20 13.926">
  <path id="east_FILL0_wght200_GRAD0_opsz40-2" data-name="east_FILL0_wght200_GRAD0_opsz40" d="M137.771-719.93H119.708a.464.464,0,0,1-.342-.135.465.465,0,0,1-.135-.343.462.462,0,0,1,.135-.342.465.465,0,0,1,.342-.134h18.063l-5.694-5.682a.461.461,0,0,1-.133-.325.449.449,0,0,1,.133-.336.435.435,0,0,1,.325-.131.452.452,0,0,1,.333.135l6.238,6.239a.936.936,0,0,1,.193.27.738.738,0,0,1,.065.312.8.8,0,0,1-.066.322.87.87,0,0,1-.192.275l-6.238,6.238a.432.432,0,0,1-.325.135.457.457,0,0,1-.333-.135.4.4,0,0,1-.148-.341.451.451,0,0,1,.148-.326Z" transform="translate(-119.231 727.359)" fill="#fff"/>
</svg>
