<svg xmlns="http://www.w3.org/2000/svg" width="42.42" height="42.42" viewBox="0 0 42.42 42.42">
  <g id="Group_13183" data-name="Group 13183" transform="translate(-176.79 -752.79)">
    <path id="moj-qr-icon" d="M-6.464-14.625h-7.429a1.857,1.857,0,0,0-1.857,1.857v7.429a1.857,1.857,0,0,0,1.857,1.857h7.429A1.857,1.857,0,0,0-4.607-5.339v-7.429A1.856,1.856,0,0,0-6.464-14.625Zm-.929,8.357h-5.571v-5.571h5.571Zm.929,6.5h-7.429A1.857,1.857,0,0,0-15.75,2.089V9.518a1.857,1.857,0,0,0,1.857,1.857h7.429A1.857,1.857,0,0,0-4.607,9.518V2.089A1.855,1.855,0,0,0-6.464.232Zm-.929,8.357h-5.571V3.018h5.571ZM8.393-14.625H.964A1.857,1.857,0,0,0-.893-12.768v7.429A1.857,1.857,0,0,0,.964-3.482H8.393A1.857,1.857,0,0,0,10.25-5.339v-7.429A1.856,1.856,0,0,0,8.393-14.625ZM7.464-6.268H1.893v-5.571H7.464Zm.929,8.357H4.679V.232H-.893V11.375H2.821V5.8H4.679V7.661H10.25V.232H8.393ZM4.679,11.375H6.536V9.518H4.679Zm3.714,0H10.25V9.518H8.393ZM-9.25-9.982h-1.857v1.857H-9.25Zm14.857,0H3.75v1.857H5.607ZM-9.25,4.875h-1.857V6.732H-9.25Z" transform="translate(200.75 775.625)" fill="#fefefe"/>
    <g id="Group_13186" data-name="Group 13186" transform="translate(-2.21 -2.21)">
      <g id="Rectangle_1738" data-name="Rectangle 1738" transform="translate(180.21 756.21)" fill="rgba(255,255,255,0)" stroke="#fff" stroke-width="2">
        <rect width="40" height="40" rx="8" stroke="none"/>
        <rect x="1" y="1" width="38" height="38" rx="7" fill="none"/>
      </g>
      <path id="Union_1" data-name="Union 1" d="M10.046,42.42V37.955H32.374V42.42ZM37.955,32.374V10.047H42.42V32.374ZM0,32.374V10.047H4.465V32.374ZM10.046,4.465V0H32.374V4.465Z" transform="translate(179 755)" fill="#3d44db"/>
    </g>
  </g>
</svg>
