<svg xmlns="http://www.w3.org/2000/svg" width="8.307" height="16" viewBox="0 0 8.307 16">
  <path id="arrow_forward_ios_FILL0_wght200_GRAD0_opsz40" d="M289.344-833.288l7-6.984a.613.613,0,0,0,.165-.422.532.532,0,0,0-.166-.414.578.578,0,0,0-.425-.175.578.578,0,0,0-.425.175l-6.917,6.919a1.068,1.068,0,0,0-.286.427,1.441,1.441,0,0,0-.081.473,1.474,1.474,0,0,0,.081.484,1.067,1.067,0,0,0,.286.427l6.922,6.923a.567.567,0,0,0,.422.172.584.584,0,0,0,.422-.177.551.551,0,0,0,.173-.412.571.571,0,0,0-.173-.423Z" transform="translate(-288.204 841.282)" fill="#fff"/>
</svg>
