<svg id="SMS-icon" xmlns="http://www.w3.org/2000/svg" width="28.005" height="9.898" viewBox="0 0 28.005 9.898">
  <path id="Path_81" data-name="Path 81" d="M-13.965-2.8a3.156,3.156,0,0,0,3.4,2.94,3.033,3.033,0,0,0,3.29-2.59c.154-1.4-.644-2.478-2.6-3l-1.232-.322c-1.148-.294-1.288-.882-1.288-1.26a1.507,1.507,0,0,1,1.666-1.33A1.48,1.48,0,0,1-9.051-6.9h1.484A2.858,2.858,0,0,0-10.7-9.758,2.943,2.943,0,0,0-13.881-7c0,.854.322,2.03,2.394,2.59l1.218.308c.9.21,1.582.672,1.526,1.568a1.62,1.62,0,0,1-1.82,1.316A1.8,1.8,0,0,1-12.481-2.8Zm13.958.028L-3.283-9.646H-4.6L-5.775,0h1.484l.826-6.888,2.842,5.81H.637l2.828-5.81L4.291,0H5.775L4.6-9.646H3.269ZM7.329-2.8a3.156,3.156,0,0,0,3.4,2.94,3.033,3.033,0,0,0,3.29-2.59c.154-1.4-.644-2.478-2.6-3l-1.232-.322C9.037-6.062,8.9-6.65,8.9-7.028a1.507,1.507,0,0,1,1.666-1.33A1.48,1.48,0,0,1,12.243-6.9h1.484a2.858,2.858,0,0,0-3.136-2.856A2.943,2.943,0,0,0,7.413-7c0,.854.322,2.03,2.394,2.59l1.218.308c.9.21,1.582.672,1.526,1.568a1.62,1.62,0,0,1-1.82,1.316A1.8,1.8,0,0,1,8.813-2.8Z" transform="translate(13.965 9.758)"/>
</svg>
