<svg xmlns="http://www.w3.org/2000/svg" width="24" height="24" viewBox="0 0 24 24">
  <g id="Group_13371" data-name="Group 13371" transform="translate(-23 -40)">
    <circle id="Ellipse_100" data-name="Ellipse 100" cx="12" cy="12" r="12" transform="translate(23 40)" fill="#27a844"/>
    <path id="Path_4907" data-name="Path 4907" d="M9.375-6.25a.622.622,0,0,1-.183.442l-5,5a.619.619,0,0,1-.442.183.622.622,0,0,1-.442-.183l-2.5-2.5A.622.622,0,0,1,.625-3.75a.625.625,0,0,1,.625-.625.622.622,0,0,1,.442.183L3.75-2.133,8.309-6.691a.619.619,0,0,1,.441-.184A.624.624,0,0,1,9.375-6.25Z" transform="translate(30 56)" fill="#fff"/>
  </g>
</svg>
