<svg xmlns="http://www.w3.org/2000/svg" width="18" height="14" viewBox="0 0 18 14">
  <path id="O_nama" data-name="O nama" d="M-2.5-6a2,2,0,0,0,2-2,2,2,0,0,0-2-2,2,2,0,0,0-2,2A2,2,0,0,0-2.5-6Zm8-.75h-3A.75.75,0,0,0,1.75-6a.75.75,0,0,0,.75.75h3A.75.75,0,0,0,6.25-6,.749.749,0,0,0,5.5-6.75ZM-1.5-5h-2A2.5,2.5,0,0,0-6-2.5a.5.5,0,0,0,.5.5h6A.5.5,0,0,0,1-2.5,2.5,2.5,0,0,0-1.5-5Zm7-4.25h-3a.75.75,0,0,0-.75.75.75.75,0,0,0,.75.75h3a.75.75,0,0,0,.75-.75A.749.749,0,0,0,5.5-9.25ZM7-13H-7a2,2,0,0,0-2,2V-1A2,2,0,0,0-7,1H7A2,2,0,0,0,9-1V-11A2,2,0,0,0,7-13ZM7.5-1A.5.5,0,0,1,7-.5H-7A.5.5,0,0,1-7.5-1V-11a.5.5,0,0,1,.5-.5H7a.5.5,0,0,1,.5.5Z" transform="translate(9 13)" fill="#3a3a3a"/>
</svg>
