<svg xmlns="http://www.w3.org/2000/svg" width="14" height="14" viewBox="0 0 14 14">
  <path id="How_to" data-name="How to" d="M1.034-10H-.591A2.168,2.168,0,0,0-2.75-7.812a.76.76,0,0,0,.75.75.76.76,0,0,0,.75-.75A.67.67,0,0,1-.591-8.5H1.034a.718.718,0,0,1,.716.688.67.67,0,0,1-.344.594L-.375-6.156A.771.771,0,0,0-.75-5.5V-5A.76.76,0,0,0,0-4.25.76.76,0,0,0,.75-5v-.062l1.409-.875A2.195,2.195,0,0,0,3.25-7.812,2.18,2.18,0,0,0,1.034-10ZM0-3.5a.987.987,0,0,0-1,1,.97.97,0,0,0,1,1,1,1,0,0,0,1-1A1,1,0,0,0,0-3.5ZM5-13H-5a2,2,0,0,0-2,2V-1A2,2,0,0,0-5,1H5A2,2,0,0,0,7-1V-11A2,2,0,0,0,5-13ZM5.5-1A.5.5,0,0,1,5-.5H-5A.5.5,0,0,1-5.5-1V-11a.5.5,0,0,1,.5-.5H5a.5.5,0,0,1,.5.5Z" transform="translate(7 13)" fill="#3a3a3a"/>
</svg>
