<svg xmlns="http://www.w3.org/2000/svg" width="16" height="14" viewBox="0 0 16 14">
  <path id="Logout" d="M-2.75-.5H-5A1.5,1.5,0,0,1-6.5-2v-8A1.5,1.5,0,0,1-5-11.5h2.25A.749.749,0,0,0-2-12.25.749.749,0,0,0-2.75-13H-5a3,3,0,0,0-3,3v8A3,3,0,0,0-5,1h2.25A.748.748,0,0,0-2,.25.748.748,0,0,0-2.75-.5Zm10.5-6.044L2.984-10.738a1.052,1.052,0,0,0-1.128-.171,1.025,1.025,0,0,0-.607.93V-8.25H-2.5A1.251,1.251,0,0,0-3.75-7v2A1.251,1.251,0,0,0-2.5-3.75H1.25v1.728a1.024,1.024,0,0,0,.607.929A1.052,1.052,0,0,0,2.289-1a1.047,1.047,0,0,0,.7-.264L7.747-5.423A.744.744,0,0,0,8-5.984.736.736,0,0,0,7.747-6.544Zm-5,3.481V-5.278h-5v-1.5h5V-8.966L6.119-6.011Z" transform="translate(8 13)" fill="#3a3a3a"/>
</svg>
