<svg xmlns="http://www.w3.org/2000/svg" width="14" height="16" viewBox="0 0 14 16">
  <path id="Moji_objekti" data-name="Moji objekti" d="M6-9H3.75v-1.25A3.754,3.754,0,0,0,0-14a3.754,3.754,0,0,0-3.75,3.75V-9H-6A1,1,0,0,0-7-8V-.5A2.5,2.5,0,0,0-4.5,2h9A2.5,2.5,0,0,0,7-.5V-8A1,1,0,0,0,6-9Zm-8.25-1.25A2.253,2.253,0,0,1,0-12.5a2.253,2.253,0,0,1,2.25,2.25V-9h-4.5ZM5.5-.5a1,1,0,0,1-1,1h-9a1,1,0,0,1-1-1v-7h1.75v1.75A.75.75,0,0,0-3-5a.751.751,0,0,0,.75-.75V-7.5h4.5v1.75A.75.75,0,0,0,3-5a.751.751,0,0,0,.75-.75V-7.5H5.5Z" transform="translate(7 14)" fill="#3a3a3a"/>
</svg>
