<svg xmlns="http://www.w3.org/2000/svg" width="15.508" height="16" viewBox="0 0 15.508 16">
  <path id="Postavke" d="M7.753-4.153a.777.777,0,0,0-.386-.668L6.338-5.414A5.139,5.139,0,0,0,6.369-6c0-.2-.01-.409-.03-.613l1.028-.593a.777.777,0,0,0,.386-.668c0-.665-1.541-4.006-2.641-4.006a.762.762,0,0,0-.387.1L3.7-11.183A6.1,6.1,0,0,0,2.636-11.8v-1.185a.769.769,0,0,0-.573-.746A8.011,8.011,0,0,0,0-14a8.054,8.054,0,0,0-2.066.269.769.769,0,0,0-.572.746V-11.8a6.1,6.1,0,0,0-1.065.617l-1.024-.593a.762.762,0,0,0-.387-.1h0c-1.014,0-2.641,3.178-2.641,4.006a.777.777,0,0,0,.386.668l1.028.593c-.02.2-.03.409-.03.612s.01.409.03.613l-1.028.593a.763.763,0,0,0-.386.641c0,.665,1.541,4.006,2.641,4.006a.762.762,0,0,0,.387-.1L-3.7-.845a6.1,6.1,0,0,0,1.065.617V.958a.769.769,0,0,0,.573.746A7.012,7.012,0,0,0-.028,2a8.042,8.042,0,0,0,2.065-.269A.769.769,0,0,0,2.61.985V-.2A6.1,6.1,0,0,0,3.674-.818L4.7-.225a.761.761,0,0,0,.387.1c1.043,0,2.668-3.18,2.668-4.033ZM4.975-1.841,3.611-2.63A8.462,8.462,0,0,1,1.137-1.2V.374A6.565,6.565,0,0,1,0,.473a6.529,6.529,0,0,1-1.136-.1V-1.2A8.452,8.452,0,0,1-3.612-2.63l-1.364.789A6.485,6.485,0,0,1-6.114-3.813l1.336-.759c-.053-.8-.094-1.113-.094-1.428s.04-.628.119-1.43l-1.361-.782a6.487,6.487,0,0,1,1.138-1.975l1.364.789a8.462,8.462,0,0,1,2.474-1.434V-12.4A6.565,6.565,0,0,1,0-12.5a6.529,6.529,0,0,1,1.136.1v1.57A8.452,8.452,0,0,1,3.612-9.4l1.364-.789A6.478,6.478,0,0,1,6.113-8.214L4.75-7.428c.079.8.119,1.114.119,1.428s-.04.627-.119,1.43l1.362.785A6.035,6.035,0,0,1,4.975-1.841ZM0-9.028a3.006,3.006,0,0,0-3,3,3.005,3.005,0,0,0,3,3,3.005,3.005,0,0,0,3-3A3.005,3.005,0,0,0,0-9.028ZM0-4.5A1.5,1.5,0,0,1-1.5-6,1.5,1.5,0,0,1,0-7.5,1.5,1.5,0,0,1,1.5-6,1.5,1.5,0,0,1,0-4.5Z" transform="translate(7.754 14)" fill="#3a3a3a"/>
</svg>
