<svg xmlns="http://www.w3.org/2000/svg" width="14" height="14" viewBox="0 0 14 14">
  <path id="Path_1895" data-name="Path 1895" d="M11-5A2.888,2.888,0,0,0,8.749-3.964L5.931-5.372A2.976,2.976,0,0,0,6-6a2.976,2.976,0,0,0-.069-.628L8.748-8.037A2.981,2.981,0,0,0,11-7a3,3,0,0,0,3-3,3,3,0,0,0-3-3,3,3,0,0,0-3,3,3,3,0,0,0,.068.628L5.25-7.963A2.88,2.88,0,0,0,3-9,2.983,2.983,0,0,0,0-6,2.983,2.983,0,0,0,3-3,2.888,2.888,0,0,0,5.251-4.036L8.068-2.627A3.006,3.006,0,0,0,8-2a3,3,0,0,0,3,3,3,3,0,0,0,3-3A3,3,0,0,0,11-5Zm0-6.5A1.5,1.5,0,0,1,12.5-10,1.5,1.5,0,0,1,11-8.5,1.5,1.5,0,0,1,9.5-10,1.5,1.5,0,0,1,11-11.5Zm-8,7A1.5,1.5,0,0,1,1.5-6,1.5,1.5,0,0,1,3-7.5,1.5,1.5,0,0,1,4.5-6,1.5,1.5,0,0,1,3-4.5Zm8,4A1.5,1.5,0,0,1,9.5-2,1.5,1.5,0,0,1,11-3.5,1.5,1.5,0,0,1,12.5-2,1.5,1.5,0,0,1,11-.5Z" transform="translate(0 13)" fill="#3a3a3a"/>
</svg>
