<svg xmlns="http://www.w3.org/2000/svg" width="14" height="16" viewBox="0 0 14 16">
  <path id="Podrska" d="M2.834-3H-2.834A4.166,4.166,0,0,0-7,1.166.833.833,0,0,0-6.167,2H6.166A.832.832,0,0,0,7,1.166,4.166,4.166,0,0,0,2.834-3ZM-5.416.5a2.672,2.672,0,0,1,2.582-2H2.833A2.672,2.672,0,0,1,5.415.5H-5.416ZM0-10.5A2.5,2.5,0,0,1,2.5-8a2.476,2.476,0,0,1-.586,1.588A1.994,1.994,0,0,1,2.23-6L2.5-6a1.5,1.5,0,0,0,1.266-.706A3.97,3.97,0,0,0,4-8a4,4,0,0,0-4-4A4,4,0,0,0-4-8,3.977,3.977,0,0,0-2.488-4.891c0-.037-.012-.072-.012-.109a1.994,1.994,0,0,1,.585-1.412A2.476,2.476,0,0,1-2.5-8,2.5,2.5,0,0,1,0-10.5ZM-5.5-7A.5.5,0,0,0-5-7.5V-8a5,5,0,0,1,5-5A5,5,0,0,1,5-8v.5A2.5,2.5,0,0,1,2.5-5h-1a1,1,0,0,0-1-1h-1a1,1,0,0,0-1,1,1,1,0,0,0,1,1h3A3.5,3.5,0,0,0,6-7.5V-8a6.006,6.006,0,0,0-6-6A6.007,6.007,0,0,0-6-8v.5A.5.5,0,0,0-5.5-7Z" transform="translate(7 14)" fill="#3a3a3a"/>
</svg>
