<svg xmlns="http://www.w3.org/2000/svg" width="14" height="13.972" viewBox="0 0 14 13.972">
  <path id="Ankete" d="M7-1V-11a1.976,1.976,0,0,0-2-1.972H-5A1.994,1.994,0,0,0-7-11V-1A2,2,0,0,0-5,1H5A2,2,0,0,0,7-1ZM-5-.5A.5.5,0,0,1-5.5-1V-11a.5.5,0,0,1,.5-.5H5a.5.5,0,0,1,.5.5V-1A.5.5,0,0,1,5-.5ZM4-6a.75.75,0,0,0-.75-.75h-6.5A.752.752,0,0,0-4-6a.751.751,0,0,0,.75.75h6.5A.748.748,0,0,0,4-6ZM-1-3a.75.75,0,0,0-.75-.75h-1.5A.752.752,0,0,0-4-3a.751.751,0,0,0,.75.75h1.5A.748.748,0,0,0-1-3ZM1-9a.75.75,0,0,0-.75-.75h-3.5A.752.752,0,0,0-4-9a.751.751,0,0,0,.75.75H.25A.748.748,0,0,0,1-9Z" transform="translate(7 12.972)" fill="#3a3a3a"/>
</svg>
