<svg xmlns="http://www.w3.org/2000/svg" width="2.625" height="13.125" viewBox="0 0 2.625 13.125">
  <path id="more-icon" d="M1.75-9.187A1.313,1.313,0,0,0,3.063-10.5,1.313,1.313,0,0,0,1.75-11.812,1.313,1.313,0,0,0,.438-10.5,1.313,1.313,0,0,0,1.75-9.187Zm0,7.875A1.313,1.313,0,0,0,.438,0,1.313,1.313,0,0,0,1.75,1.313,1.313,1.313,0,0,0,3.063,0,1.313,1.313,0,0,0,1.75-1.312Zm0-5.25A1.313,1.313,0,0,0,.438-5.25,1.313,1.313,0,0,0,1.75-3.937,1.313,1.313,0,0,0,3.063-5.25,1.313,1.313,0,0,0,1.75-6.562Z" transform="translate(-0.438 11.813)" fill="rgba(16,15,16,0.8)"/>
</svg>
