<svg xmlns="http://www.w3.org/2000/svg" width="20" height="20" viewBox="0 0 20 20">
  <path id="add_FILL0_wght200_GRAD0_opsz40_1_" data-name="add_FILL0_wght200_GRAD0_opsz40 (1)" d="M249.295-709.295h-8.59a.679.679,0,0,1-.5-.2.692.692,0,0,1-.2-.507.671.671,0,0,1,.2-.5.69.69,0,0,1,.5-.2h8.59v-8.59a.679.679,0,0,1,.2-.5.692.692,0,0,1,.507-.2.671.671,0,0,1,.5.2.691.691,0,0,1,.2.5v8.59h8.59a.679.679,0,0,1,.5.2.692.692,0,0,1,.2.507.671.671,0,0,1-.2.5.691.691,0,0,1-.5.2h-8.59v8.59a.679.679,0,0,1-.2.5.692.692,0,0,1-.507.2.671.671,0,0,1-.5-.2.69.69,0,0,1-.2-.5Z" transform="translate(-240 720)" fill="#403f40"/>
</svg>
