<svg xmlns="http://www.w3.org/2000/svg" width="18.756" height="34.389" viewBox="0 0 18.756 34.389">
  <path id="Path_4865" data-name="Path 4865" d="M-21.353-21.511a13.8,13.8,0,0,1,.624-4.341,11.133,11.133,0,0,1,2.359-3.533l3.03-3.117A6.986,6.986,0,0,0-13.4-37.209a5.371,5.371,0,0,0-1.272-3.8,4.8,4.8,0,0,0-3.7-1.373,5.569,5.569,0,0,0-3.793,1.249A4.222,4.222,0,0,0-23.6-37.776h-4.278A7.791,7.791,0,0,1-25.2-43.824a9.989,9.989,0,0,1,6.834-2.3,9.429,9.429,0,0,1,6.811,2.344,8.5,8.5,0,0,1,2.44,6.431q0,4.041-3.747,7.966l-2.521,2.494a7.765,7.765,0,0,0-1.688,5.38Zm-.185,7.347a2.55,2.55,0,0,1,.636-1.763,2.4,2.4,0,0,1,1.885-.712,2.434,2.434,0,0,1,1.9.712,2.523,2.523,0,0,1,.648,1.763,2.439,2.439,0,0,1-.648,1.739,2.479,2.479,0,0,1-1.9.689,2.441,2.441,0,0,1-1.885-.689A2.464,2.464,0,0,1-21.538-14.163Z" transform="translate(27.875 46.125)" fill="#fff" opacity="0.1"/>
</svg>
